HIERARCHY
ROOT Hips
{
	OFFSET 0.000000 0.000000 0.000000 
	CHANNELS 6 Xposition Yposition Zposition Zrotation Yrotation Xrotation
	JOINT LeftUpLeg
	{
		OFFSET 1.363060 -1.794630 0.839290 
		CHANNELS 3 Zrotation Yrotation Xrotation
		JOINT LeftLeg
		{
			OFFSET 2.448110 -6.726130 0.000000 
			CHANNELS 3 Zrotation Yrotation Xrotation
			JOINT LeftFoot
			{
				OFFSET 2.562200 -7.039590 0.000000 
				CHANNELS 3 Zrotation Yrotation Xrotation
				JOINT LeftToeBase
				{
					OFFSET 0.157640 -0.433110 2.322550 
					CHANNELS 3 Zrotation Yrotation Xrotation
					End Site
					{
						OFFSET 0.000000 0.000000 0.000000 
					}
				}
			}
		}
	}
	JOINT RightUpLeg
	{
		OFFSET -1.305520 -1.794630 0.839290 
		CHANNELS 3 Zrotation Yrotation Xrotation
		JOINT RightLeg
		{
			OFFSET -2.542530 -6.985550 0.000000 
			CHANNELS 3 Zrotation Yrotation Xrotation
			JOINT RightFoot
			{
				OFFSET -2.568260 -7.056230 0.000000 
				CHANNELS 3 Zrotation Yrotation Xrotation
				JOINT RightToeBase
				{
					OFFSET -0.164730 -0.452590 2.363150 
					CHANNELS 3 Zrotation Yrotation Xrotation
					End Site
					{
						OFFSET 0.000000 0.000000 0.000000 
					}
				}
			}
		}
	}
	JOINT Spine
	{
		OFFSET 0.028270 2.035590 -0.193380 
		CHANNELS 3 Zrotation Yrotation Xrotation
		JOINT Spine1
		{
			OFFSET 0.056720 2.048850 -0.042750 
			CHANNELS 3 Zrotation Yrotation Xrotation
			JOINT Neck1
			{
				OFFSET -0.054170 1.746240 0.172020 
				CHANNELS 3 Zrotation Yrotation Xrotation
				JOINT Head
				{
					OFFSET 0.104070 1.761360 -0.123970 
					CHANNELS 3 Zrotation Yrotation Xrotation
					End Site
					{
						OFFSET 0.000000 0.000000 0.000000 
					}
				}
			}
			JOINT LeftArm
			{
				OFFSET 3.362410 1.200890 -0.311210 
				CHANNELS 3 Zrotation Yrotation Xrotation
				JOINT LeftForeArm
				{
					OFFSET 4.983000 -0.000000 -0.000000 
					CHANNELS 3 Zrotation Yrotation Xrotation
					JOINT LeftHand
					{
						OFFSET 3.483560 -0.000000 -0.000000 
						CHANNELS 3 Zrotation Yrotation Xrotation
						JOINT LeftHandIndex1
						{
							OFFSET 0.715260 -0.000000 -0.000000 
							CHANNELS 3 Zrotation Yrotation Xrotation
							End Site
							{
								OFFSET 0.000000 0.000000 0.000000 
							}
						}
					}
				}
			}
			JOINT RightArm
			{
				OFFSET -3.136600 1.374050 -0.404650 
				CHANNELS 3 Zrotation Yrotation Xrotation
				JOINT RightForeArm
				{
					OFFSET -5.241900 -0.000000 -0.000000 
					CHANNELS 3 Zrotation Yrotation Xrotation
					JOINT RightHand
					{
						OFFSET -3.444170 -0.000000 -0.000000 
						CHANNELS 3 Zrotation Yrotation Xrotation
						JOINT RightHandIndex1
						{
							OFFSET -0.622530 -0.000000 -0.000000 
							CHANNELS 3 Zrotation Yrotation Xrotation
							End Site
							{
								OFFSET 0.000000 0.000000 0.000000 
							}
						}
					}
				}
			}
		}
	}
}
MOTION
Frames: 15
Frame Time: 0.041667
11.537875 17.496581 12.515865 -11.825910 65.692322 -6.740083 -19.752655 -2.777337 -14.062518 1.649780 6.718804 23.246283 1.158218 -22.320558 6.910651 0.901300 6.050400 16.930600 17.681533 24.559985 -15.015532 -1.524184 -7.664553 26.670127 -1.733208 21.902421 1.781747 -0.446700 4.287900 -11.888200 -1.468565 -0.914969 5.427870 -2.757384 -0.602452 2.775439 -1.189817 3.719493 13.708219 -0.629700 1.812600 4.992100 -76.730968 -10.663705 40.180885 13.075267 -24.562520 -2.811500 0.058990 0.704486 -30.575132 -7.125000 0.000000 0.000000 83.590349 -5.540596 19.396002 -14.027151 27.635470 -3.387914 -0.031278 0.431939 15.466098 7.125000 0.000000 0.000000 
11.548328 17.503818 12.543406 -12.375431 66.703918 -7.239837 -19.566049 -2.975132 -13.982988 1.630942 6.673309 23.111320 1.100578 -22.834195 7.443601 0.830600 5.814300 16.246700 17.658015 24.528336 -15.235573 -1.478108 -7.591740 26.442045 -1.653145 22.410445 2.548657 -0.405100 4.086000 -11.318700 -1.482015 -0.913380 5.423622 -2.786955 -0.601013 2.750248 -1.363696 3.684405 13.558805 -0.723900 1.796600 4.914500 -76.726530 -10.750365 39.994071 12.837930 -24.278087 -2.737096 0.041106 0.702966 -30.297224 -7.125000 0.000000 0.000000 83.637438 -5.500616 19.233157 -13.951261 27.541027 -3.360186 -0.022658 0.436517 15.676907 7.125000 0.000000 0.000000 
11.564812 17.516985 12.572555 -13.152564 67.712602 -7.970348 -19.314078 -3.183014 -13.870809 1.606748 6.622759 22.957313 1.039657 -23.282322 8.063737 0.798500 5.703500 15.926600 17.697113 24.699259 -15.355232 -1.439834 -7.524147 26.252399 -1.569959 22.799443 3.323085 -0.289000 3.457200 -9.554200 -1.478912 -0.908252 5.422996 -2.837431 -0.594881 2.753514 -1.437645 3.675915 13.538795 -0.756400 1.792200 4.894600 -76.757543 -10.830001 39.749189 12.612998 -24.004693 -2.665053 0.046325 0.699079 -30.034985 -7.125000 0.000000 0.000000 83.652776 -5.465165 19.048651 -13.883860 27.456787 -3.336367 -0.016306 0.439117 15.955311 7.125000 0.000000 0.000000 
11.581296 17.531760 12.598889 -13.973209 68.742953 -8.703487 -19.080944 -3.514405 -13.807475 1.588721 6.587038 22.853183 0.967764 -23.725371 8.817824 0.912000 6.085200 17.031800 17.679370 24.921874 -15.503511 -1.402244 -7.459822 26.061798 -1.501678 23.093912 3.972977 -0.224400 3.049000 -8.415200 -1.484260 -0.898202 5.419730 -2.907161 -0.585556 2.781319 -1.471231 3.665958 13.600721 -0.769000 1.786900 4.924000 -76.741006 -10.936124 39.893387 12.415369 -23.754966 -2.595190 0.080361 0.707305 -30.048518 -7.125000 0.000000 0.000000 83.620693 -5.466911 19.102513 -13.881752 27.454132 -3.335011 -0.021027 0.440349 15.886790 7.125000 0.000000 0.000000 
11.597680 17.534273 12.625525 -14.570051 69.664134 -9.249417 -18.951237 -3.814351 -13.758646 1.581419 6.569178 22.804714 0.912690 -24.097808 9.308901 0.975800 6.288500 17.623700 17.639255 24.994849 -15.677672 -1.363382 -7.395782 25.876574 -1.407035 23.537137 4.877328 -0.178900 2.724100 -7.511700 -1.503384 -0.864539 5.430772 -2.941279 -0.566798 2.835255 -1.506459 3.699829 13.678244 -0.785000 1.803200 4.973900 -76.652265 -10.975564 40.302497 12.253839 -23.547849 -2.532804 0.130214 0.711809 -30.655044 -7.125000 0.000000 0.000000 83.596537 -5.452101 19.183607 -13.866759 27.432310 -3.327198 -0.029391 0.444718 15.690750 7.125000 0.000000 0.000000 
11.618386 17.522815 12.655176 -15.360214 70.498316 -10.148839 -18.757852 -4.003551 -13.545394 1.582870 6.567281 22.802543 0.859203 -24.486413 9.721731 0.962900 6.248100 17.505800 17.809550 24.926199 -15.609059 -1.335348 -7.332197 25.728851 -1.323876 24.026604 5.561994 -0.185100 2.770700 -7.641100 -1.494613 -0.790845 5.497817 -2.955043 -0.525636 2.901702 -1.533683 3.732403 13.715539 -0.787000 1.816200 5.002000 -76.660792 -10.971226 40.588701 12.073817 -23.321651 -2.467376 0.198715 0.726227 -31.223178 -7.125000 0.000000 0.000000 83.564426 -5.437783 19.206564 -13.874166 27.438137 -3.329315 -0.036535 0.443150 15.469659 7.125000 0.000000 0.000000 
11.637282 17.515779 12.686235 -15.869337 71.487478 -10.755722 -18.707986 -4.236167 -13.398173 1.596834 6.583287 22.871949 0.783095 -24.971771 10.281631 0.980100 6.301800 17.662700 17.789747 24.833417 -15.582238 -1.308089 -7.274329 25.573240 -1.265221 24.474710 6.011476 -0.219600 3.017000 -8.326000 -1.511762 -0.741936 5.559122 -2.920939 -0.500717 2.978984 -1.586212 3.699204 13.687326 -0.804800 1.797800 4.987400 -76.664957 -11.014860 40.661687 11.867433 -23.070128 -2.405952 0.218504 0.761882 -31.076957 -7.125000 0.000000 0.000000 83.523851 -5.428789 19.305934 -13.927295 27.502421 -3.349452 -0.045106 0.432507 15.244825 7.125000 0.000000 0.000000 
11.652359 17.516482 12.715685 -16.126505 72.611777 -11.041348 -18.782537 -4.547535 -13.371818 1.615931 6.606499 22.976055 0.689108 -25.505357 10.981888 1.041100 6.489000 18.210200 17.554923 24.725164 -15.657025 -1.286846 -7.230141 25.417289 -1.243693 24.958667 6.013518 -0.275100 3.373700 -9.320800 -1.545203 -0.728636 5.563933 -2.844451 -0.497722 2.982448 -1.649850 3.671068 13.641204 -0.838900 1.786100 4.951500 -76.717430 -11.065606 40.450892 11.625897 -22.781073 -2.340766 0.208723 0.793766 -30.483904 -7.125000 0.000000 0.000000 83.469106 -5.475643 19.366354 -14.007266 27.605652 -3.381803 -0.044705 0.421749 15.284641 7.125000 0.000000 0.000000 
11.667537 17.511758 12.743628 -16.695347 73.708231 -11.619907 -18.778832 -4.865274 -13.313628 1.621919 6.609370 23.011641 0.602367 -25.947559 11.719327 1.107300 6.685700 18.787500 17.404187 24.514866 -15.750899 -1.287183 -7.214072 25.332312 -1.237250 25.668780 5.579087 -0.397700 4.049200 -11.215100 -1.563435 -0.733174 5.524905 -2.806637 -0.501033 2.889156 -1.680158 3.686844 13.643693 -0.856500 1.797300 4.935300 -76.800241 -11.060181 40.109094 11.349353 -22.439155 -2.252845 0.244086 0.757644 -30.055028 -7.125000 0.000000 0.000000 83.334054 -5.583838 19.590458 -14.080199 27.701522 -3.411168 -0.044133 0.411158 15.272242 7.125000 0.000000 0.000000 
11.678291 17.505928 12.769359 -17.781064 74.751696 -12.677862 -18.655315 -5.150408 -13.296217 1.622607 6.609919 23.020494 0.527036 -26.360077 12.322781 1.143700 6.791000 19.097500 17.388138 24.380698 -15.856096 -1.288110 -7.205758 25.285616 -1.227889 26.098930 5.332061 -0.507800 4.567800 -12.679800 -1.584972 -0.747785 5.480911 -2.852432 -0.505742 2.777232 -1.744687 3.717158 13.702969 -0.895900 1.815100 4.968200 -76.802004 -11.039089 39.588466 11.070650 -22.095239 -2.169695 0.267624 0.718634 -29.711571 -7.125000 0.000000 0.000000 83.238808 -5.632418 19.871852 -14.097621 27.724358 -3.416533 -0.043747 0.407816 15.127065 7.125000 0.000000 0.000000 
11.687740 17.506532 12.795693 -18.806545 75.812635 -13.661708 -18.597961 -5.429472 -13.318370 1.624339 6.609800 23.036162 0.437555 -26.815197 13.059226 1.203100 6.959100 19.594100 17.316156 24.305828 -15.970500 -1.276927 -7.191637 25.239144 -1.195632 26.216953 5.617941 -0.508400 4.570600 -12.687800 -1.613486 -0.737457 5.448448 -2.872856 -0.499421 2.701575 -1.861793 3.695537 13.674038 -0.957100 1.804700 4.961000 -76.708927 -10.975524 39.383282 10.908718 -21.900628 -2.125617 0.261236 0.711681 -29.530733 -7.125000 0.000000 0.000000 83.246201 -5.622908 19.788565 -14.066785 27.680806 -3.406298 -0.041844 0.395654 15.140258 7.125000 0.000000 0.000000 
11.704927 17.509145 12.825345 -20.151939 76.805450 -14.974401 -18.489622 -5.642921 -13.309248 1.618669 6.599148 23.019977 0.350813 -27.205615 13.934548 1.291600 7.201000 20.312300 17.323359 24.176262 -16.045672 -1.270127 -7.179222 25.196875 -1.176907 26.390475 5.682985 -0.586900 4.905300 -13.638600 -1.622399 -0.693686 5.404940 -2.883734 -0.476545 2.641255 -1.968694 3.646240 13.694190 -1.022600 1.784700 4.962500 -76.602372 -10.903861 39.453612 10.748292 -21.708349 -2.081461 0.243611 0.717317 -29.470770 -7.125000 0.000000 0.000000 83.215767 -5.695513 19.698982 -14.077319 27.689789 -3.414533 -0.039243 0.367243 15.260732 7.125000 0.000000 0.000000 
11.726136 17.508843 12.855800 -21.691822 77.810157 -16.514989 -18.391001 -5.915216 -13.192504 1.604177 6.570826 22.954233 0.281306 -27.479479 14.792988 1.400000 7.485100 21.160600 17.307086 24.087412 -16.056599 -1.263384 -7.165182 25.168670 -1.133375 26.584982 6.006833 -0.541200 4.713300 -13.092500 -1.638500 -0.638098 5.375124 -2.911793 -0.447176 2.594523 -2.076879 3.580292 13.699329 -1.096600 1.759900 4.946900 -76.483115 -10.810257 39.568012 10.610221 -21.547466 -2.046583 0.223182 0.736847 -29.525319 -7.125000 0.000000 0.000000 83.183763 -5.748718 19.556046 -14.047550 27.654507 -3.404139 -0.039475 0.376595 15.480956 7.125000 0.000000 0.000000 
11.745032 17.508944 12.884949 -23.049461 78.845509 -17.856547 -18.396899 -6.315875 -13.074844 1.597026 6.551320 22.921290 0.224276 -27.709692 15.436748 1.500500 7.737200 21.918800 17.152398 24.112090 -16.035839 -1.252452 -7.143244 25.118848 -1.090388 26.728801 6.415971 -0.438000 4.246600 -11.771600 -1.696344 -0.613767 5.316600 -2.943955 -0.434236 2.501695 -2.046968 3.545241 13.829270 -1.086800 1.746000 5.007400 -76.301435 -10.668230 39.492454 10.470654 -21.385164 -2.013459 0.206519 0.750583 -29.628310 -7.125000 0.000000 0.000000 83.186201 -5.809505 19.514391 -14.040128 27.650542 -3.397222 -0.048437 0.415260 15.556224 7.125000 0.000000 0.000000 
11.756591 17.509346 12.915103 -24.950032 79.822400 -19.713461 -18.315475 -6.741285 -13.050289 1.593943 6.547806 22.930183 0.166245 -27.939849 16.196345 1.613600 8.010000 22.744400 17.067355 24.135308 -16.011140 -1.226476 -7.102012 25.027343 -1.029352 26.733567 7.183271 -0.336400 3.727100 -10.310300 -1.748797 -0.593474 5.229609 -2.968786 -0.421418 2.357105 -1.677553 3.527630 14.179272 -0.868400 1.732000 5.183200 -76.072988 -10.519863 39.510836 10.362657 -21.255585 -1.990332 0.170813 0.770575 -29.888375 -7.125000 0.000000 0.000000 83.190327 -5.869839 19.563456 -14.032275 27.641685 -3.388979 -0.063553 0.444048 15.599813 7.125000 0.000000 0.000000 
